<svg width="66" height="66" viewBox="0 0 66 66" fill="none" xmlns="http://www.w3.org/2000/svg">
<path d="M34.4646 3.23612C37.5956 -1.38689 44.7899 0.397998 45.3969 5.9484L47.089 21.4209C47.2804 23.1712 48.231 24.7491 49.6889 25.7365L62.5761 34.4646C67.1991 37.5956 65.4142 44.7899 59.8638 45.3969L44.3914 47.089C42.641 47.2804 41.0631 48.231 40.0758 49.6888L31.3477 62.5761C28.2167 67.1991 21.0224 65.4142 20.4154 59.8638L18.7233 44.3913C18.5319 42.641 17.5813 41.0631 16.1234 40.0757L3.23616 31.3477C-1.38685 28.2166 0.398029 21.0223 5.94843 20.4153L21.4209 18.7232C23.1712 18.5318 24.7491 17.5812 25.7365 16.1234L34.4646 3.23612Z" fill="#FA713A"/>
<path d="M35.0856 3.65719C37.8252 -0.387949 44.1199 1.17376 44.6511 6.03036L46.3434 21.5025C46.5587 23.4716 47.6281 25.2467 49.2682 26.3575L62.155 35.0856C66.2002 37.8252 64.6385 44.1199 59.7819 44.651L44.3097 46.3433C42.3407 46.5587 40.5656 47.6281 39.4548 49.2682L30.7267 62.155C27.987 66.2002 21.6923 64.6384 21.1612 59.7818L19.4689 44.3097C19.2535 42.3406 18.1841 40.5655 16.5441 39.4547L3.65722 30.7266C-0.387918 27.987 1.17379 21.6923 6.03039 21.1612L21.5025 19.4689C23.4716 19.2535 25.2467 18.1841 26.3575 16.544L35.0856 3.65719Z" stroke="black" stroke-opacity="0.2" stroke-width="1.5"/>
</svg>
