<svg width="361" height="283" viewBox="0 0 361 283" fill="none" xmlns="http://www.w3.org/2000/svg">
<circle cx="36.6897" cy="228.69" r="23.6897" fill="#FCEAD1"/>
<circle cx="36.6897" cy="228.69" r="22.9397" stroke="black" stroke-opacity="0.2" stroke-width="1.5"/>
<rect x="318.561" y="45" width="38.0335" height="38.0335" rx="5" transform="rotate(69.2267 318.561 45)" fill="#99ABF4"/>
<rect x="318.125" y="45.9672" width="36.5335" height="36.5335" rx="4.25" transform="rotate(69.2267 318.125 45.9672)" stroke="black" stroke-opacity="0.2" stroke-width="1.5"/>
<rect x="59.5605" y="18" width="38.0335" height="38.0335" rx="5" transform="rotate(69.2267 59.5605 18)" fill="#FFC441"/>
<rect x="59.1253" y="18.9672" width="36.5335" height="36.5335" rx="4.25" transform="rotate(69.2267 59.1253 18.9672)" stroke="black" stroke-opacity="0.2" stroke-width="1.5"/>
<path d="M254.9 223.037C254.9 220.28 257.135 218.045 259.892 218.045H292.582C295.242 218.045 297.434 220.131 297.567 222.788L298.316 237.763C298.459 240.614 296.185 243.004 293.331 243.004H259.892C257.135 243.004 254.9 240.769 254.9 238.012V223.037Z" fill="#99ABF4"/>
<path d="M249.909 118.211C249.909 115.454 252.144 113.219 254.901 113.219H287.591C290.251 113.219 292.443 115.305 292.576 117.962L293.325 132.937C293.467 135.788 291.194 138.178 288.339 138.178H254.901C252.144 138.178 249.909 135.943 249.909 133.186V118.211Z" fill="#99ABF4"/>
<path d="M253.653 196.831C253.653 194.074 255.888 191.839 258.645 191.839H291.335C293.995 191.839 296.187 193.925 296.32 196.581L297.069 211.557C297.212 214.408 294.938 216.798 292.083 216.798H258.645C255.888 216.798 253.653 214.563 253.653 211.806V196.831Z" fill="#D5F3A3"/>
<path d="M248.661 92.0039C248.661 89.2471 250.896 87.0122 253.653 87.0122H286.343C289.002 87.0122 291.195 89.098 291.328 91.7547L292.077 106.73C292.219 109.581 289.946 111.971 287.091 111.971H253.653C250.896 111.971 248.661 109.736 248.661 106.979V92.0039Z" fill="#D5F3A3"/>
<path d="M252.405 170.624C252.405 167.867 254.64 165.632 257.397 165.632H290.087C292.747 165.632 294.939 167.718 295.072 170.375L295.821 185.35C295.963 188.201 293.69 190.591 290.835 190.591H257.397C254.64 190.591 252.405 188.356 252.405 185.599V170.624Z" fill="#FF9C9C"/>
<path d="M247.413 65.7974C247.413 63.0405 249.648 60.8057 252.405 60.8057H285.094C287.754 60.8057 289.947 62.8915 290.08 65.5481L290.829 80.5233C290.971 83.3745 288.698 85.7643 285.843 85.7643H252.405C249.648 85.7643 247.413 83.5295 247.413 80.7726V65.7974Z" fill="#FF9C9C"/>
<path d="M251.157 144.418C251.157 141.661 253.392 139.426 256.149 139.426H288.839C291.499 139.426 293.691 141.512 293.824 144.168L294.573 159.143C294.715 161.995 292.442 164.384 289.587 164.384H256.149C253.392 164.384 251.157 162.15 251.157 159.393V144.418Z" fill="#FFC441"/>
<path d="M79.6582 35.2231H268.905C271.22 35.2233 273.133 37.0299 273.266 39.3413L284.751 240.259C284.894 242.765 282.901 244.875 280.391 244.875H91.1436C88.8283 244.875 86.9153 243.069 86.7832 240.757L75.2979 39.8403C75.1546 37.3342 77.148 35.2232 79.6582 35.2231Z" fill="#333132" stroke="black" stroke-width="1.24793"/>
<path d="M73.8086 35.2231H263C265.619 35.2234 267.649 37.5125 267.336 40.1128L243.156 241.03C242.892 243.224 241.03 244.875 238.819 244.875H49.6289C47.0097 244.875 44.979 242.586 45.292 239.986L69.4727 39.0688C69.7368 36.8744 71.5983 35.2232 73.8086 35.2231Z" fill="#FFF2E8" stroke="black" stroke-width="1.24793"/>
<circle cx="113.26" cy="50.1982" r="5.6157" fill="#333132"/>
<circle cx="154.442" cy="50.1982" r="5.6157" fill="#333132"/>
<circle cx="200.616" cy="50.1982" r="5.6157" fill="#333132"/>
<circle cx="244.293" cy="50.1982" r="5.6157" fill="#333132"/>
<path d="M111.538 51.9762C112.175 52.2387 112.904 51.9348 113.167 51.2975C113.429 50.6602 113.125 49.9308 112.488 49.6684L111.538 51.9762ZM112.013 50.8223L112.488 49.6684C110.88 49.0065 108.391 47.4905 106.318 45.1447C104.26 42.8149 102.653 39.7176 102.653 35.8471H101.405H100.157C100.157 40.4625 102.087 44.1249 104.448 46.7973C106.795 49.4536 109.609 51.1822 111.538 51.9762L112.013 50.8223ZM101.405 35.8471H102.653C102.653 25.7908 109.089 20.2479 115.133 20.2479L115.133 19V17.7521C107.449 17.7521 100.157 24.6885 100.157 35.8471H101.405ZM115.133 19L115.133 20.2479C118.337 20.2479 120.889 21.1136 122.68 23.2366C124.512 25.407 125.74 29.1128 125.74 35.2231H126.988H128.236C128.236 28.8542 126.968 24.4484 124.588 21.6271C122.167 18.7583 118.792 17.7521 115.133 17.7521V19Z" fill="#FFC441"/>
<path d="M152.719 51.9762C153.357 52.2387 154.086 51.9348 154.348 51.2975C154.611 50.6602 154.307 49.9308 153.67 49.6684L152.719 51.9762ZM153.194 50.8223L153.67 49.6684C152.062 49.0065 149.573 47.4905 147.5 45.1447C145.441 42.8149 143.835 39.7176 143.835 35.8471H142.587H141.339C141.339 40.4625 143.268 44.1249 145.63 46.7973C147.977 49.4536 150.791 51.1822 152.719 51.9762L153.194 50.8223ZM142.587 35.8471H143.835C143.835 25.7908 150.27 20.2479 156.314 20.2479L156.314 19V17.7521C148.631 17.7521 141.339 24.6885 141.339 35.8471H142.587ZM156.314 19L156.314 20.2479C159.518 20.2479 162.071 21.1136 163.862 23.2366C165.693 25.407 166.922 29.1128 166.922 35.2231H168.17H169.417C169.417 28.8542 168.15 24.4484 165.77 21.6271C163.349 18.7583 159.974 17.7521 156.314 17.7521V19Z" fill="#FFC441"/>
<path d="M243.818 51.9762C244.455 52.2387 245.185 51.9348 245.447 51.2975C245.709 50.6602 245.405 49.9308 244.768 49.6684L243.818 51.9762ZM244.293 50.8223L244.768 49.6684C243.161 49.0065 240.671 47.4905 238.599 45.1447C236.54 42.8149 234.933 39.7176 234.933 35.8471H233.686H232.438C232.438 40.4625 234.367 44.1249 236.728 46.7973C239.075 49.4536 241.889 51.1822 243.818 51.9762L244.293 50.8223ZM233.686 35.8471H234.933C234.933 25.7908 241.369 20.2479 247.413 20.2479L247.413 19V17.7521C239.73 17.7521 232.438 24.6885 232.438 35.8471H233.686ZM247.413 19L247.413 20.2479C250.617 20.2479 253.169 21.1136 254.961 23.2366C256.792 25.407 258.02 29.1128 258.02 35.2231H259.268H260.516C260.516 28.8542 259.249 24.4484 256.868 21.6271C254.448 18.7583 251.072 17.7521 247.413 17.7521V19Z" fill="#FFC441"/>
<path d="M198.893 51.9762C199.53 52.2387 200.26 51.9348 200.522 51.2975C200.785 50.6602 200.481 49.9308 199.843 49.6684L198.893 51.9762ZM199.368 50.8223L199.843 49.6684C198.236 49.0065 195.746 47.4905 193.674 45.1447C191.615 42.8149 190.009 39.7176 190.009 35.8471H188.761H187.513C187.513 40.4625 189.442 44.1249 191.803 46.7973C194.15 49.4536 196.965 51.1822 198.893 51.9762L199.368 50.8223ZM188.761 35.8471H190.009C190.009 25.7908 196.444 20.2479 202.488 20.2479L202.488 19V17.7521C194.805 17.7521 187.513 24.6885 187.513 35.8471H188.761ZM202.488 19L202.488 20.2479C205.692 20.2479 208.245 21.1136 210.036 23.2366C211.867 25.407 213.095 29.1128 213.095 35.2231H214.343H215.591C215.591 28.8542 214.324 24.4484 211.943 21.6271C209.523 18.7583 206.147 17.7521 202.488 17.7521V19Z" fill="#FFC441"/>
<path d="M224.327 139.426C224.327 173.886 193.895 205.566 159.434 205.566C124.973 205.566 98.9092 177.63 98.9092 143.169C98.9092 108.709 129.341 78.9009 163.802 78.9009C198.262 78.9009 224.327 104.965 224.327 139.426Z" fill="#D5F3A3"/>
<path d="M126.987 145.041L151.322 167.504L195 120.707" stroke="white" stroke-width="9.98347" stroke-linecap="round"/>
</svg>
