<svg width="85" height="62" viewBox="0 0 85 62" fill="none" xmlns="http://www.w3.org/2000/svg">
<path d="M37.0159 15.0799C36.8136 14.4738 36.7124 13.7161 36.7124 12.8068C36.7124 11.735 36.7873 10.9034 36.9372 10.312C36.7049 10.4229 36.4201 10.5116 36.0828 10.5781C35.9329 11.3173 35.738 12.0381 35.4982 12.7403C34.8686 14.6031 34.1266 15.8043 33.2721 16.344C33.2272 16.3661 33.156 16.4031 33.0585 16.4549C32.9536 16.4992 32.8787 16.5362 32.8337 16.5657C32.1816 16.8836 31.6157 17.0425 31.1361 17.0425C30.2217 17.013 29.5134 16.5473 29.0112 15.6454C28.9138 15.7489 28.8088 15.8561 28.6964 15.967C27.9469 16.6544 27.1899 16.9982 26.4254 16.9982C25.9457 16.9982 25.5298 16.8762 25.1775 16.6323C24.4205 16.0852 24.042 15.0282 24.042 13.461C24.042 13.2097 24.057 12.9436 24.087 12.6627C24.2444 11.3986 24.6491 10.275 25.3012 9.29189C26.0956 8.08698 27.0513 7.48452 28.168 7.48452C28.5877 7.48452 28.9625 7.55474 29.2923 7.69519L30.2142 1.29732C30.2441 1.11991 30.2741 0.964671 30.3041 0.831613C30.4465 0.277204 30.7276 0 31.1473 0C31.2447 0 31.3384 0.0110882 31.4284 0.0332645C31.7506 0.12197 31.9118 0.436135 31.9118 0.975759C31.9118 1.20492 31.7656 2.35439 31.4733 4.42418C30.7763 9.32516 30.4278 12.4372 30.4278 13.7604C30.4278 14.1005 30.4952 14.4183 30.6301 14.714C30.84 15.1575 31.1211 15.3793 31.4733 15.3793C31.7282 15.3793 32.0055 15.2832 32.3053 15.091L32.339 15.0577C32.4065 15.006 32.4739 14.9469 32.5414 14.8803C33.3508 14.1189 34.0254 12.6701 34.565 10.5338C34.3252 10.4672 34.1003 10.3785 33.8905 10.2677C33.111 9.83152 32.7213 9.14035 32.7213 8.19416C32.7213 7.88369 32.8 7.58801 32.9574 7.30711C33.2871 6.74531 33.8118 6.46441 34.5313 6.46441C34.8986 6.46441 35.2471 6.5605 35.5769 6.7527C36.1165 7.08534 36.3863 7.54366 36.3863 8.12763C36.3863 8.35679 36.3676 8.65617 36.3301 9.02577C36.51 8.92968 36.7686 8.76705 37.1059 8.5379C37.5181 8.25699 37.8216 8.11654 38.0165 8.11654C38.2638 8.11654 38.4849 8.18307 38.6798 8.31613C38.8822 8.45658 38.9834 8.58964 38.9834 8.71531C38.9834 8.75966 38.9571 8.87793 38.9047 9.07013C38.5149 10.3416 38.3201 11.4615 38.3201 12.4298C38.3201 13.1543 38.395 13.7419 38.5449 14.1929C38.7398 14.799 39.0471 15.1021 39.4668 15.1021C39.6917 15.0799 40.0664 14.9173 40.5911 14.6142C41.0557 14.3111 41.4005 14.1596 41.6254 14.1596C41.7378 14.1596 41.8502 14.1966 41.9627 14.2705C42.1575 14.4183 42.255 14.5883 42.255 14.7805C42.2325 15.1871 41.9402 15.6048 41.378 16.0335C40.7035 16.514 39.9877 16.7542 39.2307 16.7542C39.0583 16.7542 38.8859 16.7358 38.7135 16.6988C37.9116 16.5214 37.3457 15.9818 37.0159 15.0799ZM28.0331 14.215C28.138 14.0672 28.2655 13.6717 28.4154 13.0286C28.7152 11.7202 28.9363 10.4007 29.0787 9.07013C28.8913 8.98142 28.7152 8.93707 28.5503 8.93707C28.4079 8.93707 28.2655 8.95555 28.123 8.99251C27.4335 9.19949 26.8489 9.8426 26.3692 10.9219C25.9345 11.8902 25.7171 12.8549 25.7171 13.8159C25.7171 13.9563 25.7246 14.0894 25.7396 14.215C25.8071 14.9321 26.0357 15.2906 26.4254 15.2906C26.6503 15.2832 26.9313 15.1612 27.2686 14.9247C27.6134 14.6734 27.8682 14.4368 28.0331 14.215ZM34.0704 8.27178C34.0779 8.68574 34.3402 8.98142 34.8573 9.15883C34.9323 8.76705 34.9698 8.47137 34.9698 8.27178C34.9698 8.22743 34.9623 8.17938 34.9473 8.12763C34.8948 7.92805 34.7562 7.82825 34.5313 7.82825C34.4938 7.82825 34.4489 7.83564 34.3964 7.85043C34.179 7.90956 34.0704 8.05002 34.0704 8.27178Z" fill="#333132"/>
<path d="M42.1425 5.48865C42.15 5.2521 42.2512 5.03034 42.4461 4.82336C42.521 4.76422 43.0195 4.28743 43.9413 3.39298C44.1362 3.20818 44.3536 3.11208 44.5934 3.10469C44.8482 3.10469 45.0768 3.20079 45.2792 3.39298C46.351 4.45005 46.8981 4.97859 46.9206 4.97859C47.1155 5.12643 47.2167 5.3445 47.2242 5.63279C47.2242 5.74367 47.1904 5.85825 47.123 5.97653C46.9656 6.22786 46.7445 6.35352 46.4597 6.35352C46.2348 6.35352 46.025 6.25373 45.8301 6.05414L44.6271 4.84553L43.5366 5.89891C43.3417 6.0911 43.1319 6.1909 42.907 6.19829C42.7946 6.19829 42.6784 6.16872 42.5585 6.10958C42.2812 5.96913 42.1425 5.76216 42.1425 5.48865ZM44.1662 7.70628C44.4285 7.71367 44.6759 7.73955 44.9082 7.7839C46.0624 8.02784 46.7707 8.91489 47.0331 10.4451C47.1755 10.3637 47.4116 10.2122 47.7413 9.99045C48.191 9.68737 48.5321 9.53583 48.7644 9.53583C48.8768 9.53583 48.9855 9.5691 49.0904 9.63562C49.3228 9.78347 49.439 9.98305 49.439 10.2344C49.4315 10.4857 49.2666 10.7629 48.9443 11.066C48.4871 11.48 47.895 11.8311 47.168 12.1194C47.1605 13.2725 46.9843 14.2483 46.6396 15.0467C46.0774 16.3477 45.1555 16.9982 43.8739 16.9982C43.4167 16.9982 42.9595 16.854 42.5023 16.5657C41.4455 15.8783 40.9171 14.6401 40.9171 12.8512C40.9171 11.7719 41.1007 10.7888 41.468 9.90174C42.0451 8.50463 42.9445 7.77281 44.1662 7.70628ZM45.5715 12.4077C45.2792 12.4003 45.0019 12.3707 44.7396 12.319C43.7502 12.112 43.1131 11.5945 42.8283 10.7666C42.6335 11.3876 42.536 12.0639 42.536 12.7958C42.536 13.1506 42.5697 13.4943 42.6372 13.827C42.8471 14.8397 43.3043 15.346 44.0088 15.346C44.2411 15.346 44.451 15.2758 44.6384 15.1354C45.1855 14.7214 45.4966 13.8122 45.5715 12.4077ZM45.4029 10.8997C45.4029 10.8997 45.4553 10.8997 45.5603 10.8997C45.4478 9.88696 45.178 9.3769 44.7508 9.36951C44.7133 9.36951 44.6759 9.3732 44.6384 9.3806C44.4735 9.43973 44.391 9.5617 44.391 9.74651C44.391 9.90913 44.4173 10.0681 44.4697 10.2233C44.6346 10.6742 44.9457 10.8997 45.4029 10.8997Z" fill="#333132"/>
<path d="M53.1827 17.0203C51.3764 16.9464 50.0386 15.8598 49.1691 13.7604C48.5246 12.1785 48.2023 10.2418 48.2023 7.95022C48.2023 7.83195 48.2098 7.68041 48.2248 7.49561C48.3297 5.93587 48.622 4.5055 49.1017 3.20448C49.8812 1.10512 50.9829 0.0554409 52.407 0.0554409C52.482 0.0554409 52.5606 0.0591369 52.6431 0.0665291C53.9397 0.147842 54.5881 0.89075 54.5881 2.29525C54.5881 3.82542 53.921 5.52561 52.5869 7.39581C51.7399 8.58594 50.8518 9.55062 49.9224 10.2898C50.1772 11.6943 50.4583 12.7477 50.7656 13.45C51.3352 14.751 52.1821 15.4015 53.3064 15.4015C53.3814 15.4015 53.4601 15.3941 53.5425 15.3793C53.7898 15.3349 54.1346 15.1575 54.5768 14.8471C55.004 14.5588 55.3376 14.4146 55.5774 14.4146C55.6823 14.4146 55.7835 14.4479 55.881 14.5144C56.0983 14.6623 56.207 14.8619 56.207 15.1132C56.192 15.4976 55.9147 15.8931 55.375 16.2996C54.7005 16.7801 53.9697 17.0203 53.1827 17.0203ZM52.4182 1.72976C51.976 1.73715 51.5863 1.92565 51.249 2.29525C50.3946 3.24884 49.9261 5.24101 49.8437 8.27178C50.2934 7.82086 50.7431 7.28863 51.1928 6.67508C52.437 4.99707 53.0591 3.58148 53.0591 2.42831C53.0591 2.36917 53.0441 2.29895 53.0141 2.21763C52.8942 1.89238 52.6956 1.72976 52.4182 1.72976Z" fill="#333132"/>
<path d="M54.633 13.6274C54.633 13.376 54.648 13.1099 54.678 12.829C54.8354 11.565 55.2401 10.4414 55.8922 9.45821C56.6867 8.2533 57.6423 7.65084 58.7591 7.65084C59.0589 7.65084 59.3474 7.6878 59.6247 7.76172C60.6141 8.04262 61.1087 8.73009 61.1087 9.82412C61.1087 9.90544 61.105 9.99045 61.0975 10.0792C61.0226 11.0697 60.5729 11.9013 59.7484 12.574C58.9389 13.2393 57.9983 13.5719 56.9265 13.5719C56.7241 13.5719 56.5255 13.5534 56.3307 13.5165C56.3157 13.6274 56.3082 13.7826 56.3082 13.9822C56.3082 14.4109 56.3831 14.7436 56.533 14.9801C56.7354 15.2832 57.1514 15.4606 57.7809 15.5124C58.0583 15.5124 58.3318 15.4828 58.6017 15.4237C59.0738 15.3128 59.6322 15.0504 60.2768 14.6364C60.6965 14.3629 60.9926 14.2261 61.165 14.2261C61.2624 14.2261 61.3636 14.2557 61.4685 14.3148C61.7084 14.4553 61.8283 14.6586 61.8283 14.9247C61.8283 15.0134 61.8095 15.1095 61.7721 15.213C61.5697 15.6935 60.9626 16.1481 59.9508 16.5768C59.0139 16.976 58.1894 17.1756 57.4774 17.1756C57.2076 17.1756 56.9565 17.1534 56.7241 17.1091C55.3301 16.8282 54.633 15.6676 54.633 13.6274ZM58.2419 9.39168C57.5598 9.8426 57.0239 10.7001 56.6342 11.9641C56.8216 12.0085 57.0015 12.0307 57.1739 12.0307C57.7959 12.0307 58.3393 11.8422 58.804 11.4652C59.3212 11.0512 59.5798 10.5596 59.5798 9.99045C59.5798 9.42125 59.3961 9.13296 59.0289 9.12557C58.7665 9.13296 58.5042 9.22167 58.2419 9.39168Z" fill="#333132"/>
<path d="M72.9695 15.5162C75.0169 15.6161 76.7625 15.8631 78.197 16.2658L78.196 16.2667C79.6863 16.6418 80.9144 17.3093 81.8519 18.288C82.7976 19.2752 83.4406 20.6331 83.8123 22.3189L83.879 22.634C84.1995 24.2395 84.2946 26.2621 84.1764 28.6879C84.019 31.9168 83.2873 34.5395 81.9383 36.511C81.2028 37.5859 80.3294 38.49 79.3226 39.2248C79.8561 39.5001 80.3386 39.8029 80.7683 40.1351C81.9504 41.0268 82.7942 42.1056 83.2757 43.3724C83.7466 44.6112 83.9425 45.9606 83.8717 47.413C83.7689 49.5203 83.198 51.2404 82.1092 52.5188C81.0623 53.7527 79.5767 54.5895 77.6972 55.057L77.6902 55.0596C75.8617 55.4876 73.6812 55.6336 71.1596 55.5107C70.5641 55.4817 69.9251 55.4311 69.2426 55.3625C68.5469 55.3284 67.8385 55.2582 67.1176 55.1513C66.4067 55.0811 65.6956 55.011 64.9847 54.9408C64.9768 54.94 64.9692 54.9378 64.9614 54.9367C64.952 54.9353 64.9426 54.9343 64.9333 54.9324C64.9023 54.9262 64.8726 54.917 64.8436 54.9055C64.8408 54.9044 64.8379 54.9034 64.835 54.9022C64.7729 54.8763 64.7172 54.8386 64.6693 54.7915C64.6671 54.7893 64.6639 54.7884 64.6617 54.7862C64.6602 54.7846 64.6597 54.7818 64.6581 54.7802C64.6373 54.7584 64.6179 54.7353 64.6009 54.7099C64.5949 54.7009 64.5902 54.6911 64.5847 54.6817C64.5797 54.6731 64.5729 54.6655 64.5683 54.6565C64.5617 54.6435 64.5562 54.6299 64.5507 54.6165C64.5485 54.611 64.5468 54.6052 64.5447 54.5996C64.5338 54.5698 64.5262 54.5394 64.5208 54.5085C64.5198 54.5026 64.5186 54.4967 64.5177 54.4908C64.5137 54.4614 64.5113 54.432 64.5123 54.4025C64.5124 54.3996 64.5116 54.3966 64.5117 54.3937L64.5899 52.7911C64.5901 52.7862 64.5912 52.7813 64.5915 52.7765C64.6763 51.6768 64.7779 50.22 64.8975 48.4063C65.0169 46.5953 65.1306 44.587 65.2381 42.3816L65.2384 42.3748C65.3788 40.1353 65.5038 37.8946 65.613 35.6536C65.724 33.377 65.8193 31.0996 65.8992 28.8215L65.8995 28.8147L65.9763 27.1182C66.0456 25.459 66.0924 23.9094 66.1159 22.47L66.1153 22.4622C66.1797 20.5029 66.2246 18.9539 66.249 17.8157L66.3356 16.0395C66.3358 16.0338 66.3379 16.0278 66.3384 16.0221C66.3396 16.007 66.3429 15.9924 66.3454 15.9774C66.3496 15.9531 66.3542 15.9292 66.3616 15.9059C66.3665 15.8905 66.3722 15.8756 66.3785 15.8607C66.3876 15.8393 66.398 15.8188 66.4099 15.7987C66.414 15.7917 66.4162 15.7836 66.4207 15.7767C66.4245 15.771 66.4302 15.7664 66.4342 15.7608C66.4488 15.7403 66.4654 15.7218 66.483 15.7035C66.4921 15.694 66.5009 15.6843 66.5107 15.6755C66.5153 15.6714 66.5184 15.6655 66.5231 15.6615C66.5414 15.6462 66.5628 15.6348 66.5827 15.6223C66.59 15.6178 66.5965 15.6119 66.604 15.6077C66.6739 15.5687 66.7512 15.5459 66.8311 15.5416L66.8341 15.5407C67.9375 15.4866 69.024 15.4676 70.0937 15.4836C71.1591 15.4641 72.1183 15.4747 72.9695 15.5162ZM73.037 42.9123C72.744 42.8981 72.3687 42.8975 71.9078 42.9101C71.8945 42.9105 71.881 42.9098 71.8678 42.9091L71.541 42.8932C71.5121 43.6163 71.4809 44.3464 71.445 45.0835L71.3646 47.4535C71.3356 48.208 71.3043 48.9316 71.2705 49.6243L71.2632 49.8547C71.8987 49.9245 72.4994 49.9737 73.0658 50.0013C73.9205 50.0429 74.6758 49.9618 75.3377 49.7669C75.9609 49.5834 76.4444 49.2481 76.8076 48.7582L76.8181 48.743C77.1908 48.2749 77.4316 47.5698 77.4805 46.5657C77.5224 45.7065 77.3801 45.0603 77.1018 44.5869C77.0961 44.5771 77.0908 44.5669 77.0857 44.5568C76.8424 44.0729 76.4166 43.6979 75.7514 43.4485C75.7426 43.4452 75.7341 43.4412 75.7255 43.4374C75.072 43.151 74.1834 42.9682 73.037 42.9123ZM73.386 21.352C73.1734 21.3417 72.9459 21.3358 72.7035 21.3344C72.6929 21.489 72.6838 21.6473 72.6725 21.809C72.6011 23.2726 72.5082 24.8776 72.3918 26.6233L72.3918 26.6243C72.2774 28.3319 72.1635 30.0218 72.0508 31.6938L71.7869 37.1063C72.7472 37.0349 73.5551 36.8857 74.2159 36.6586C75.3423 36.2375 76.1724 35.444 76.7138 34.2364C77.2717 32.9596 77.6277 31.0724 77.7514 28.536C77.8494 26.5241 77.7506 25.0305 77.4815 24.0243C77.2167 23.0347 76.7604 22.4156 76.1569 22.0737C76.1488 22.0691 76.1401 22.0639 76.1322 22.0588C75.5117 21.6626 74.6114 21.4117 73.386 21.352Z" fill="#D5F3A3" stroke="#D5F3A3" stroke-width="1.04962" stroke-linejoin="round"/>
<path d="M44.1738 58.1857C44.1816 58.4719 43.9588 58.7113 43.6727 58.724L27.2945 59.4378C27.2362 59.4403 27.1793 59.4319 27.1249 59.416C27.1174 59.4138 27.1097 59.4123 27.1023 59.4098C27.0735 59.4 27.0458 59.3876 27.0192 59.373C27.0134 59.3698 27.008 59.3661 27.0023 59.3627C26.9782 59.3482 26.9561 59.3311 26.9345 59.3128C26.9317 59.3104 26.9274 59.3097 26.9246 59.3072C26.9226 59.3055 26.9215 59.3023 26.9195 59.3005C26.8967 59.2798 26.8752 59.2577 26.8561 59.2329C26.8518 59.2273 26.848 59.2214 26.8439 59.2156C26.8365 59.2051 26.8283 59.1951 26.8216 59.184C26.814 59.1714 26.8083 59.1575 26.8019 59.1445C26.7997 59.1399 26.7968 59.1357 26.7947 59.131C26.7813 59.1015 26.7706 59.0711 26.7629 59.0401C26.7616 59.0346 26.7607 59.0291 26.7595 59.0235C26.7534 58.9949 26.7497 58.966 26.7484 58.9369C26.7482 58.934 26.7472 58.9311 26.7472 58.9281L26.6772 56.3744L26.6702 54.2312C26.666 53.4551 26.6596 52.6169 26.6521 51.7171C26.636 49.8852 26.6 47.9295 26.543 45.8507L26.5428 45.8419C26.52 43.7621 26.4805 41.7181 26.4255 39.71C26.3694 37.6666 26.2978 35.659 26.2096 33.6873L26.2095 33.6863C26.1203 31.6797 26.0183 29.8508 25.9048 28.1995L25.9045 28.1887C25.8238 26.4972 25.7511 25.0883 25.686 23.9626L25.6261 21.776C25.6186 21.4967 25.831 21.2609 26.1096 21.2391L32.3671 20.7491C32.5202 20.7371 32.6711 20.7931 32.7796 20.9019C32.8881 21.0106 32.9439 21.1618 32.9316 21.3149C32.9088 21.6005 32.9077 22.2249 32.9349 23.2178C32.9486 23.7145 32.9595 24.2639 32.9674 24.866L32.9822 26.8312C32.9857 28.2077 32.9918 29.6728 33.0001 31.2259L33.4583 47.9393C33.5348 49.4857 33.5934 50.9804 33.633 52.4235L33.6793 53.4344L43.5206 53.2828C43.808 53.2783 44.0455 53.5055 44.0534 53.7928L44.1738 58.1857Z" fill="#FFC441" stroke="#FFC441" stroke-width="1.04962" stroke-linejoin="round"/>
<path d="M16.69 14.2163C18.1307 14.3626 19.4339 14.7215 20.5915 15.3024L20.5905 15.3023C21.7517 15.8472 22.708 16.6241 23.4511 17.6304C24.2406 18.6138 24.7876 19.7988 25.1009 21.1716L25.0999 21.1715C25.418 22.5125 25.4815 24.0559 25.3053 25.792C25.0933 27.8803 24.4754 29.9391 23.4603 31.9673C22.4905 33.9504 21.2562 35.8477 19.7601 37.6589C18.3093 39.4616 16.7797 41.148 15.1704 42.7154C13.5655 44.2784 11.994 45.6641 10.456 46.8719C10.0239 47.2203 9.60949 47.5502 9.21384 47.8628L11.1852 48.0629C12.0316 48.1128 12.7428 48.1667 13.3165 48.2243C13.8309 48.2394 14.4112 48.2805 15.0562 48.3459C15.7222 48.4135 16.4266 48.4671 17.169 48.5064C17.9183 48.546 18.6488 48.6021 19.3606 48.6739L21.3351 48.7654L21.337 48.7656C21.9418 48.7907 22.4177 48.8037 22.7662 48.8036L22.8741 48.8146C22.9806 48.837 23.0787 48.8919 23.1534 48.9735C23.2528 49.0821 23.3014 49.2282 23.2884 49.3749L22.9077 53.6572C22.8952 53.7969 22.8273 53.9256 22.7192 54.015C22.6111 54.1043 22.4718 54.1469 22.3323 54.1328L10.9406 52.9764C10.3602 52.9541 9.7308 52.9086 9.05317 52.8398L6.9779 52.6291C6.30003 52.5963 5.62397 52.5456 4.94967 52.4773C4.28464 52.4452 3.68609 52.4023 3.15461 52.349C2.65269 52.3345 2.24829 52.313 1.94716 52.2824C1.8064 52.2681 1.67712 52.1978 1.58908 52.087C1.50104 51.9762 1.46187 51.8336 1.47986 51.6931L1.9969 47.6632C2.00039 47.6248 2.00841 47.5872 2.0201 47.5507C2.02162 47.546 2.02285 47.5412 2.0245 47.5365C2.03398 47.5095 2.04611 47.4837 2.05989 47.4586C2.06404 47.451 2.06843 47.4437 2.07294 47.4364C2.09979 47.3927 2.13198 47.3516 2.17146 47.3168C3.39877 46.2333 4.75972 45.0735 6.25281 43.8362C7.77473 42.5749 9.28451 41.2569 10.7825 39.8838L11.3503 39.3574C12.6609 38.121 13.8804 36.8344 15.0097 35.4982C16.2956 33.9451 17.3529 32.3553 18.1843 30.73C19.0071 29.1211 19.5029 27.4676 19.6755 25.7673C19.8369 24.1772 19.7687 22.9325 19.5025 22.0079C19.5009 22.0026 19.4996 21.9972 19.4982 21.9918C19.2641 21.0691 18.8572 20.4526 18.3158 20.0735C18.3104 20.0697 18.3047 20.0651 18.2994 20.0611C17.7305 19.6301 16.9469 19.3447 15.9112 19.2395C14.7148 19.1181 13.7785 19.3123 13.0591 19.7677L13.056 19.7693C12.3505 20.2091 11.7621 20.8795 11.3008 21.8105L11.1465 22.161C10.8039 23.0003 10.5695 23.997 10.4515 25.1588C10.3837 25.8266 10.3473 26.5361 10.3415 27.2865C10.3358 28.0354 10.3644 28.7885 10.4283 29.5451C10.4413 29.6993 10.3857 29.8513 10.2762 29.9606C10.1665 30.0699 10.0137 30.1253 9.85941 30.1117L5.64213 29.7386C5.38661 29.7157 5.18551 29.5112 5.16603 29.2554C5.10357 28.4348 5.07323 27.6523 5.07547 26.9081C5.0755 26.8991 5.0758 26.8896 5.07629 26.8807C5.11811 26.1114 5.17557 25.3611 5.2497 24.6308C5.41877 22.9656 5.7725 21.4723 6.31827 20.1573L6.32207 20.1488L6.55107 19.6528C7.10578 18.5164 7.80654 17.5325 8.65525 16.7067C9.6307 15.7576 10.7898 15.0613 12.1251 14.6187L12.1301 14.6172C13.5087 14.1766 15.0318 14.048 16.69 14.2163Z" fill="#FF9C9C" stroke="#FF9C9C" stroke-width="1.04962" stroke-linejoin="round"/>
<path d="M57.1486 20.3731L57.2416 20.3757C57.2433 20.3759 57.2449 20.3772 57.2466 20.3774C57.2584 20.379 57.2697 20.3829 57.2813 20.3852C57.3005 20.3891 57.3194 20.3927 57.3378 20.3987C57.3516 20.4031 57.3645 20.4094 57.3778 20.415C57.3952 20.4222 57.4126 20.4286 57.429 20.4375C57.4378 20.4424 57.4458 20.4484 57.4544 20.4537C57.4735 20.4657 57.4919 20.4783 57.5094 20.4927C57.5176 20.4994 57.5253 20.5066 57.5331 20.5138C57.5467 20.5264 57.5593 20.5397 57.5715 20.5537C57.5821 20.5659 57.5925 20.578 57.602 20.5911C57.6101 20.6024 57.6173 20.6141 57.6245 20.626C57.6331 20.6402 57.6412 20.6546 57.6485 20.6697C57.6558 20.6849 57.6628 20.7003 57.6687 20.7165C57.6739 20.7307 57.6789 20.7449 57.6829 20.7597C57.6841 20.7642 57.6865 20.7685 57.6876 20.7731C58.0296 22.1854 58.3752 23.6524 58.7233 25.1739L59.2446 27.444C59.4182 28.2097 59.5926 28.9889 59.7677 29.7816L60.35 32.1441C60.5438 32.9366 60.7388 33.738 60.9336 34.5486L61.5628 36.979C61.7671 37.7828 61.9662 38.5825 62.1608 39.3778L63.0937 42.9804C63.4041 44.1719 63.7142 45.3541 64.0235 46.5274L65.8032 53.1916C66.4066 55.2799 66.9636 57.2063 67.4742 58.9709C67.5176 59.1209 67.4919 59.2829 67.4042 59.4121C67.3164 59.5412 67.1753 59.6242 67.0199 59.6392L60.0962 60.3047C59.83 60.3303 59.5868 60.1522 59.5319 59.8905C59.1222 57.9346 58.6891 55.8876 58.2318 53.7509L58.2294 53.7432L58.745 53.6417L58.2294 53.7422C58.1501 53.3383 58.0666 52.9345 57.9859 52.5294L50.7942 53.1602C50.7743 53.3526 50.7556 53.5448 50.7357 53.7366C50.5546 55.8384 50.3506 57.8689 50.1238 59.8276C50.0942 60.0827 49.8841 60.2784 49.6276 60.2909L43.0208 60.6089C42.863 60.6165 42.7095 60.5525 42.6041 60.4349C42.4989 60.3173 42.4523 60.1587 42.477 60.0029C42.7532 58.2639 43.0575 56.3581 43.3898 54.2861C43.7214 52.218 44.0465 50.0391 44.3659 47.751L44.3666 47.7451L44.3676 47.745C44.7221 45.419 45.0552 43.0571 45.3684 40.6598L45.3699 40.6519C45.6936 38.4361 45.9998 36.2395 46.2883 34.0624L46.2887 34.0535C46.6141 31.8765 46.9043 29.7382 47.1592 27.6389L47.1607 27.63C47.4532 25.5261 47.7142 23.5342 47.9444 21.6545C47.9521 21.5918 47.9715 21.533 47.9991 21.4792C48.0057 21.4662 48.0137 21.4541 48.0214 21.4418C48.0293 21.4291 48.0368 21.4161 48.0457 21.4042C48.0547 21.3922 48.0651 21.3815 48.0751 21.3703C48.0868 21.3571 48.0992 21.3449 48.1121 21.333C48.1203 21.3254 48.1286 21.318 48.1373 21.311C48.1526 21.2987 48.1686 21.2876 48.1852 21.277C48.1968 21.2697 48.2081 21.2619 48.2202 21.2555C48.2359 21.2472 48.2524 21.2409 48.2689 21.2341C48.2804 21.2295 48.2914 21.2234 48.3033 21.2195C48.3339 21.2095 48.366 21.2017 48.3989 21.1975L52.9473 20.6112C52.9598 20.6096 52.9727 20.6088 52.9853 20.6081L57.1486 20.3731ZM53.2194 30.8768C53.0652 32.1801 52.9123 33.5471 52.7652 34.9782L52.7643 34.9793C52.5688 36.8241 52.36 38.7618 52.1376 40.7914L52.1364 40.8051C51.868 42.7828 51.6337 44.7901 51.4325 46.827L56.7702 46.6207C56.3554 44.6771 55.9283 42.7487 55.4853 40.8363L54.9218 38.5822C54.7393 37.8397 54.5619 37.106 54.3898 36.3811C54.3886 36.3763 54.3879 36.3705 54.3869 36.3656C54.079 34.8824 53.7748 33.4725 53.4753 32.1359C53.4743 32.1314 53.4735 32.1268 53.4726 32.1223C53.3902 31.7015 53.3049 31.2864 53.2194 30.8768Z" fill="#FFF2E9" stroke="#FFF2E9" stroke-width="1.04962" stroke-linejoin="round"/>
</svg>
